<mxfile host="app.diagrams.net" agent="Mozilla/5.0 (Windows NT 10.0; Win64; x64) AppleWebKit/537.36 (KHTML, like Gecko) Chrome/134.0.0.0 Safari/537.36 Edg/134.0.0.0" version="26.2.7">
  <diagram name="Page-1" id="74e2e168-ea6b-b213-b513-2b3c1d86103e">
    <mxGraphModel dx="2590" dy="2275" grid="1" gridSize="10" guides="1" tooltips="1" connect="1" arrows="1" fold="1" page="1" pageScale="1" pageWidth="1100" pageHeight="850" background="none" math="0" shadow="0">
      <root>
        <mxCell id="0" />
        <mxCell id="1" parent="0" />
        <mxCell id="UFvfOa0gocDv29ARBhqc-4" value="&lt;span style=&quot;font-family: Roboto, Arial, sans-serif; font-size: 14px; font-weight: 400; letter-spacing: 0.2px; text-align: start;&quot;&gt;&lt;font style=&quot;color: light-dark(rgb(185, 185, 185), rgb(255, 247, 238));&quot;&gt;&amp;nbsp;Fluxograma para ler três números&amp;nbsp;quaisquer, identificar e escrever na saída o maior deles&lt;/font&gt;&lt;/span&gt;" style="swimlane;whiteSpace=wrap;html=1;startSize=23;" vertex="1" parent="1">
          <mxGeometry x="40" y="-800" width="920" height="560" as="geometry" />
        </mxCell>
        <mxCell id="UFvfOa0gocDv29ARBhqc-13" style="edgeStyle=orthogonalEdgeStyle;rounded=0;orthogonalLoop=1;jettySize=auto;html=1;exitX=1;exitY=0.5;exitDx=0;exitDy=0;" edge="1" parent="UFvfOa0gocDv29ARBhqc-4" source="UFvfOa0gocDv29ARBhqc-6" target="UFvfOa0gocDv29ARBhqc-11">
          <mxGeometry relative="1" as="geometry" />
        </mxCell>
        <mxCell id="UFvfOa0gocDv29ARBhqc-6" value="" style="ellipse;whiteSpace=wrap;html=1;" vertex="1" parent="UFvfOa0gocDv29ARBhqc-4">
          <mxGeometry x="50" y="66.25" width="80" height="57.5" as="geometry" />
        </mxCell>
        <mxCell id="UFvfOa0gocDv29ARBhqc-7" value="Início" style="text;html=1;align=center;verticalAlign=middle;whiteSpace=wrap;rounded=0;" vertex="1" parent="UFvfOa0gocDv29ARBhqc-4">
          <mxGeometry x="60" y="80" width="60" height="30" as="geometry" />
        </mxCell>
        <mxCell id="UFvfOa0gocDv29ARBhqc-8" value="" style="ellipse;whiteSpace=wrap;html=1;" vertex="1" parent="UFvfOa0gocDv29ARBhqc-4">
          <mxGeometry x="710" y="455" width="80" height="65" as="geometry" />
        </mxCell>
        <mxCell id="UFvfOa0gocDv29ARBhqc-9" value="Fim" style="text;html=1;align=center;verticalAlign=middle;whiteSpace=wrap;rounded=0;" vertex="1" parent="UFvfOa0gocDv29ARBhqc-4">
          <mxGeometry x="720" y="472.5" width="60" height="30" as="geometry" />
        </mxCell>
        <mxCell id="UFvfOa0gocDv29ARBhqc-11" value="" style="shape=parallelogram;perimeter=parallelogramPerimeter;whiteSpace=wrap;html=1;fixedSize=1;" vertex="1" parent="UFvfOa0gocDv29ARBhqc-4">
          <mxGeometry x="230" y="65" width="120" height="60" as="geometry" />
        </mxCell>
        <mxCell id="UFvfOa0gocDv29ARBhqc-12" value="num1 = 3&lt;div&gt;num2 = 2&lt;/div&gt;&lt;div&gt;&lt;span style=&quot;background-color: transparent; color: light-dark(rgb(0, 0, 0), rgb(255, 255, 255));&quot;&gt;num = 9&lt;/span&gt;&lt;/div&gt;" style="text;html=1;align=left;verticalAlign=middle;whiteSpace=wrap;rounded=0;" vertex="1" parent="UFvfOa0gocDv29ARBhqc-4">
          <mxGeometry x="260" y="75" width="60" height="40" as="geometry" />
        </mxCell>
        <mxCell id="UFvfOa0gocDv29ARBhqc-15" value="" style="rhombus;whiteSpace=wrap;html=1;" vertex="1" parent="UFvfOa0gocDv29ARBhqc-4">
          <mxGeometry x="426.78" y="65.35" width="120" height="70" as="geometry" />
        </mxCell>
        <mxCell id="UFvfOa0gocDv29ARBhqc-16" value="" style="rhombus;whiteSpace=wrap;html=1;" vertex="1" parent="UFvfOa0gocDv29ARBhqc-4">
          <mxGeometry x="347.73" y="221.03" width="120" height="70" as="geometry" />
        </mxCell>
        <mxCell id="UFvfOa0gocDv29ARBhqc-27" value="" style="rhombus;whiteSpace=wrap;html=1;" vertex="1" parent="UFvfOa0gocDv29ARBhqc-4">
          <mxGeometry x="70" y="175.12" width="120" height="70" as="geometry" />
        </mxCell>
        <mxCell id="UFvfOa0gocDv29ARBhqc-28" value="num1 &amp;gt;= num2&lt;div&gt;and&amp;nbsp;&lt;/div&gt;&lt;div&gt;num1 &amp;gt;= num3&lt;/div&gt;" style="text;html=1;align=center;verticalAlign=middle;whiteSpace=wrap;rounded=0;fontSize=8;" vertex="1" parent="UFvfOa0gocDv29ARBhqc-4">
          <mxGeometry x="441.78" y="77.85" width="90" height="45" as="geometry" />
        </mxCell>
        <mxCell id="UFvfOa0gocDv29ARBhqc-29" value="num2 &amp;gt;= num1&lt;div&gt;and&amp;nbsp;&lt;/div&gt;&lt;div&gt;num2 &amp;gt;= num3&lt;/div&gt;" style="text;html=1;align=center;verticalAlign=middle;whiteSpace=wrap;rounded=0;fontSize=8;" vertex="1" parent="UFvfOa0gocDv29ARBhqc-4">
          <mxGeometry x="362.73" y="233.53" width="90" height="45" as="geometry" />
        </mxCell>
        <mxCell id="UFvfOa0gocDv29ARBhqc-30" value="num3 &amp;gt;= num1&lt;div&gt;and&amp;nbsp;&lt;/div&gt;&lt;div&gt;num3 &amp;gt;= num2&lt;/div&gt;" style="text;html=1;align=center;verticalAlign=middle;whiteSpace=wrap;rounded=0;fontSize=8;" vertex="1" parent="UFvfOa0gocDv29ARBhqc-4">
          <mxGeometry x="85" y="187.62" width="90" height="45" as="geometry" />
        </mxCell>
        <mxCell id="UFvfOa0gocDv29ARBhqc-32" value="" style="endArrow=classic;html=1;rounded=0;fillColor=#a20025;strokeColor=light-dark(#6F0000,#FF3333);exitX=0.197;exitY=0.268;exitDx=0;exitDy=0;exitPerimeter=0;" edge="1" parent="UFvfOa0gocDv29ARBhqc-4" source="UFvfOa0gocDv29ARBhqc-15">
          <mxGeometry relative="1" as="geometry">
            <mxPoint x="446.91999999999996" y="61.610000000000014" as="sourcePoint" />
            <mxPoint x="350" y="67" as="targetPoint" />
            <Array as="points" />
          </mxGeometry>
        </mxCell>
        <mxCell id="UFvfOa0gocDv29ARBhqc-33" value="Não" style="edgeLabel;resizable=0;html=1;;align=center;verticalAlign=middle;" connectable="0" vertex="1" parent="UFvfOa0gocDv29ARBhqc-32">
          <mxGeometry relative="1" as="geometry" />
        </mxCell>
        <mxCell id="UFvfOa0gocDv29ARBhqc-36" value="&lt;div&gt;&lt;br&gt;&lt;/div&gt;" style="edgeLabel;html=1;align=center;verticalAlign=middle;resizable=0;points=[];" vertex="1" connectable="0" parent="UFvfOa0gocDv29ARBhqc-32">
          <mxGeometry x="0.0433" y="2" relative="1" as="geometry">
            <mxPoint x="37" y="5" as="offset" />
          </mxGeometry>
        </mxCell>
        <mxCell id="UFvfOa0gocDv29ARBhqc-37" value="" style="endArrow=classic;html=1;rounded=0;entryX=0;entryY=0.5;entryDx=0;entryDy=0;" edge="1" parent="UFvfOa0gocDv29ARBhqc-4" target="UFvfOa0gocDv29ARBhqc-15">
          <mxGeometry relative="1" as="geometry">
            <mxPoint x="350" y="80" as="sourcePoint" />
            <mxPoint x="410" y="79" as="targetPoint" />
          </mxGeometry>
        </mxCell>
        <mxCell id="UFvfOa0gocDv29ARBhqc-39" value="1°" style="edgeLabel;html=1;align=center;verticalAlign=middle;resizable=0;points=[];" vertex="1" connectable="0" parent="UFvfOa0gocDv29ARBhqc-37">
          <mxGeometry x="-0.1067" y="-1" relative="1" as="geometry">
            <mxPoint as="offset" />
          </mxGeometry>
        </mxCell>
        <mxCell id="UFvfOa0gocDv29ARBhqc-42" value="" style="endArrow=classic;html=1;rounded=0;exitX=0.839;exitY=1.02;exitDx=0;exitDy=0;exitPerimeter=0;" edge="1" parent="UFvfOa0gocDv29ARBhqc-4" source="UFvfOa0gocDv29ARBhqc-11" target="UFvfOa0gocDv29ARBhqc-16">
          <mxGeometry relative="1" as="geometry">
            <mxPoint x="335" y="115" as="sourcePoint" />
            <mxPoint x="390" y="123" as="targetPoint" />
            <Array as="points" />
          </mxGeometry>
        </mxCell>
        <mxCell id="UFvfOa0gocDv29ARBhqc-43" value="2°" style="edgeLabel;html=1;align=center;verticalAlign=middle;resizable=0;points=[];" vertex="1" connectable="0" parent="UFvfOa0gocDv29ARBhqc-42">
          <mxGeometry x="-0.1067" y="-1" relative="1" as="geometry">
            <mxPoint as="offset" />
          </mxGeometry>
        </mxCell>
        <mxCell id="UFvfOa0gocDv29ARBhqc-47" value="" style="endArrow=classic;html=1;rounded=0;entryX=0.269;entryY=0.192;entryDx=0;entryDy=0;entryPerimeter=0;" edge="1" parent="UFvfOa0gocDv29ARBhqc-4" target="UFvfOa0gocDv29ARBhqc-27">
          <mxGeometry relative="1" as="geometry">
            <mxPoint x="245" y="125" as="sourcePoint" />
            <mxPoint x="335" y="199" as="targetPoint" />
            <Array as="points" />
          </mxGeometry>
        </mxCell>
        <mxCell id="UFvfOa0gocDv29ARBhqc-48" value="3°" style="edgeLabel;html=1;align=center;verticalAlign=middle;resizable=0;points=[];" vertex="1" connectable="0" parent="UFvfOa0gocDv29ARBhqc-47">
          <mxGeometry x="-0.1067" y="-1" relative="1" as="geometry">
            <mxPoint as="offset" />
          </mxGeometry>
        </mxCell>
        <mxCell id="UFvfOa0gocDv29ARBhqc-50" value="" style="endArrow=classic;html=1;rounded=0;fillColor=#60a917;strokeColor=#2D7600;" edge="1" parent="UFvfOa0gocDv29ARBhqc-4">
          <mxGeometry relative="1" as="geometry">
            <mxPoint x="546.78" y="99.93000000000004" as="sourcePoint" />
            <mxPoint x="646.78" y="99.93000000000004" as="targetPoint" />
          </mxGeometry>
        </mxCell>
        <mxCell id="UFvfOa0gocDv29ARBhqc-51" value="Sim" style="edgeLabel;resizable=0;html=1;;align=center;verticalAlign=middle;" connectable="0" vertex="1" parent="UFvfOa0gocDv29ARBhqc-50">
          <mxGeometry relative="1" as="geometry" />
        </mxCell>
        <mxCell id="UFvfOa0gocDv29ARBhqc-53" value="" style="endArrow=classic;html=1;rounded=0;entryX=1;entryY=0.75;entryDx=0;entryDy=0;exitX=0.5;exitY=0;exitDx=0;exitDy=0;strokeColor=light-dark(#000000,#FF3333);" edge="1" parent="UFvfOa0gocDv29ARBhqc-4" source="UFvfOa0gocDv29ARBhqc-16" target="UFvfOa0gocDv29ARBhqc-11">
          <mxGeometry relative="1" as="geometry">
            <mxPoint x="480" y="187.5" as="sourcePoint" />
            <mxPoint x="327" y="179.5" as="targetPoint" />
            <Array as="points" />
          </mxGeometry>
        </mxCell>
        <mxCell id="UFvfOa0gocDv29ARBhqc-54" value="Não" style="edgeLabel;resizable=0;html=1;;align=center;verticalAlign=middle;" connectable="0" vertex="1" parent="UFvfOa0gocDv29ARBhqc-53">
          <mxGeometry relative="1" as="geometry" />
        </mxCell>
        <mxCell id="UFvfOa0gocDv29ARBhqc-55" value="&lt;div&gt;&lt;br&gt;&lt;/div&gt;" style="edgeLabel;html=1;align=center;verticalAlign=middle;resizable=0;points=[];" vertex="1" connectable="0" parent="UFvfOa0gocDv29ARBhqc-53">
          <mxGeometry x="0.0433" y="2" relative="1" as="geometry">
            <mxPoint as="offset" />
          </mxGeometry>
        </mxCell>
        <mxCell id="UFvfOa0gocDv29ARBhqc-57" value="" style="endArrow=classic;html=1;rounded=0;fillColor=#60a917;strokeColor=#2D7600;" edge="1" parent="UFvfOa0gocDv29ARBhqc-4">
          <mxGeometry relative="1" as="geometry">
            <mxPoint x="467.73" y="255.61000000000004" as="sourcePoint" />
            <mxPoint x="567.73" y="255.61000000000004" as="targetPoint" />
          </mxGeometry>
        </mxCell>
        <mxCell id="UFvfOa0gocDv29ARBhqc-58" value="Sim" style="edgeLabel;resizable=0;html=1;;align=center;verticalAlign=middle;" connectable="0" vertex="1" parent="UFvfOa0gocDv29ARBhqc-57">
          <mxGeometry relative="1" as="geometry" />
        </mxCell>
        <mxCell id="UFvfOa0gocDv29ARBhqc-59" value="" style="endArrow=classic;html=1;rounded=0;entryX=0.42;entryY=1.028;entryDx=0;entryDy=0;exitX=0.75;exitY=0;exitDx=0;exitDy=0;strokeColor=light-dark(#000000,#FF3333);entryPerimeter=0;" edge="1" parent="UFvfOa0gocDv29ARBhqc-4" source="UFvfOa0gocDv29ARBhqc-30" target="UFvfOa0gocDv29ARBhqc-11">
          <mxGeometry relative="1" as="geometry">
            <mxPoint x="400" y="205" as="sourcePoint" />
            <mxPoint x="290" y="125" as="targetPoint" />
            <Array as="points" />
          </mxGeometry>
        </mxCell>
        <mxCell id="UFvfOa0gocDv29ARBhqc-60" value="Não" style="edgeLabel;resizable=0;html=1;;align=center;verticalAlign=middle;" connectable="0" vertex="1" parent="UFvfOa0gocDv29ARBhqc-59">
          <mxGeometry relative="1" as="geometry" />
        </mxCell>
        <mxCell id="UFvfOa0gocDv29ARBhqc-61" value="&lt;div&gt;&lt;br&gt;&lt;/div&gt;" style="edgeLabel;html=1;align=center;verticalAlign=middle;resizable=0;points=[];" vertex="1" connectable="0" parent="UFvfOa0gocDv29ARBhqc-59">
          <mxGeometry x="0.0433" y="2" relative="1" as="geometry">
            <mxPoint as="offset" />
          </mxGeometry>
        </mxCell>
        <mxCell id="UFvfOa0gocDv29ARBhqc-62" value="" style="endArrow=classic;html=1;rounded=0;fillColor=#60a917;strokeColor=#2D7600;entryX=0.5;entryY=0.083;entryDx=0;entryDy=0;entryPerimeter=0;" edge="1" parent="UFvfOa0gocDv29ARBhqc-4" target="UFvfOa0gocDv29ARBhqc-67">
          <mxGeometry relative="1" as="geometry">
            <mxPoint x="129.57999999999998" y="245.12000000000006" as="sourcePoint" />
            <mxPoint x="130" y="335.12" as="targetPoint" />
          </mxGeometry>
        </mxCell>
        <mxCell id="UFvfOa0gocDv29ARBhqc-63" value="Sim" style="edgeLabel;resizable=0;html=1;;align=center;verticalAlign=middle;" connectable="0" vertex="1" parent="UFvfOa0gocDv29ARBhqc-62">
          <mxGeometry relative="1" as="geometry" />
        </mxCell>
        <mxCell id="UFvfOa0gocDv29ARBhqc-67" value="" style="shape=parallelogram;perimeter=parallelogramPerimeter;whiteSpace=wrap;html=1;fixedSize=1;" vertex="1" parent="UFvfOa0gocDv29ARBhqc-4">
          <mxGeometry x="70" y="330" width="120" height="60" as="geometry" />
        </mxCell>
        <mxCell id="UFvfOa0gocDv29ARBhqc-69" value="exiba num3" style="text;html=1;align=center;verticalAlign=middle;whiteSpace=wrap;rounded=0;" vertex="1" parent="UFvfOa0gocDv29ARBhqc-4">
          <mxGeometry x="100" y="345" width="60" height="30" as="geometry" />
        </mxCell>
        <mxCell id="UFvfOa0gocDv29ARBhqc-70" value="" style="shape=parallelogram;perimeter=parallelogramPerimeter;whiteSpace=wrap;html=1;fixedSize=1;" vertex="1" parent="UFvfOa0gocDv29ARBhqc-4">
          <mxGeometry x="560" y="231.03" width="120" height="60" as="geometry" />
        </mxCell>
        <mxCell id="UFvfOa0gocDv29ARBhqc-76" style="edgeStyle=orthogonalEdgeStyle;rounded=0;orthogonalLoop=1;jettySize=auto;html=1;" edge="1" parent="UFvfOa0gocDv29ARBhqc-4" target="UFvfOa0gocDv29ARBhqc-8">
          <mxGeometry relative="1" as="geometry">
            <mxPoint x="670" y="261" as="sourcePoint" />
          </mxGeometry>
        </mxCell>
        <mxCell id="UFvfOa0gocDv29ARBhqc-71" value="exiba num2" style="text;html=1;align=center;verticalAlign=middle;whiteSpace=wrap;rounded=0;" vertex="1" parent="UFvfOa0gocDv29ARBhqc-4">
          <mxGeometry x="590" y="246.03" width="60" height="30" as="geometry" />
        </mxCell>
        <mxCell id="UFvfOa0gocDv29ARBhqc-73" value="" style="shape=parallelogram;perimeter=parallelogramPerimeter;whiteSpace=wrap;html=1;fixedSize=1;" vertex="1" parent="UFvfOa0gocDv29ARBhqc-4">
          <mxGeometry x="650" y="70.35000000000001" width="120" height="60" as="geometry" />
        </mxCell>
        <mxCell id="UFvfOa0gocDv29ARBhqc-74" value="exiba num1" style="text;html=1;align=center;verticalAlign=middle;whiteSpace=wrap;rounded=0;" vertex="1" parent="UFvfOa0gocDv29ARBhqc-4">
          <mxGeometry x="680" y="84.99999999999997" width="60" height="30" as="geometry" />
        </mxCell>
        <mxCell id="UFvfOa0gocDv29ARBhqc-75" style="edgeStyle=orthogonalEdgeStyle;rounded=0;orthogonalLoop=1;jettySize=auto;html=1;exitX=0.5;exitY=1;exitDx=0;exitDy=0;entryX=0.004;entryY=0.773;entryDx=0;entryDy=0;entryPerimeter=0;" edge="1" parent="UFvfOa0gocDv29ARBhqc-4" source="UFvfOa0gocDv29ARBhqc-67" target="UFvfOa0gocDv29ARBhqc-8">
          <mxGeometry relative="1" as="geometry" />
        </mxCell>
        <mxCell id="UFvfOa0gocDv29ARBhqc-77" style="edgeStyle=orthogonalEdgeStyle;rounded=0;orthogonalLoop=1;jettySize=auto;html=1;exitX=1;exitY=0.5;exitDx=0;exitDy=0;entryX=1;entryY=0.769;entryDx=0;entryDy=0;entryPerimeter=0;" edge="1" parent="UFvfOa0gocDv29ARBhqc-4" source="UFvfOa0gocDv29ARBhqc-73" target="UFvfOa0gocDv29ARBhqc-8">
          <mxGeometry relative="1" as="geometry">
            <Array as="points">
              <mxPoint x="860" y="100" />
              <mxPoint x="860" y="505" />
            </Array>
          </mxGeometry>
        </mxCell>
        <mxCell id="UFvfOa0gocDv29ARBhqc-81" value="" style="swimlane;whiteSpace=wrap;html=1;startSize=70;" vertex="1" parent="1">
          <mxGeometry x="1160" y="-800" width="1000" height="560" as="geometry" />
        </mxCell>
        <mxCell id="UFvfOa0gocDv29ARBhqc-82" value="&lt;span style=&quot;color: rgb(60, 64, 67); font-family: Roboto, Arial, sans-serif; font-size: 14px; letter-spacing: 0.2px; text-align: start;&quot;&gt;Fluxograma para ler dois valores numéricos&amp;nbsp;e efetuar a adição destes dois valores. Caso o valor somado dos dois valores&amp;nbsp;seja maior ou igual a 10, deverá ser apresentado o resultado somando a ele o&amp;nbsp;valor inteiro de 5; caso o valor somado não seja maior ou igual a 10, este&amp;nbsp;deverá ser apresentado subtraindo o valor de 7.&lt;/span&gt;" style="text;html=1;align=center;verticalAlign=middle;whiteSpace=wrap;rounded=0;" vertex="1" parent="UFvfOa0gocDv29ARBhqc-81">
          <mxGeometry x="50" y="6.25" width="900" height="60" as="geometry" />
        </mxCell>
      </root>
    </mxGraphModel>
  </diagram>
</mxfile>
